<svg width="30" height="30" viewBox="0 0 30 30" fill="none" xmlns="http://www.w3.org/2000/svg">
<path d="M21.942 6.43774C21.6335 6.43774 21.3319 6.528 21.0753 6.69712C20.8188 6.86624 20.6188 7.10661 20.5007 7.38785C20.3827 7.66908 20.3518 7.97854 20.412 8.2771C20.4722 8.57565 20.6207 8.8499 20.8389 9.06514C21.0571 9.28039 21.335 9.42697 21.6377 9.48636C21.9403 9.54575 22.2539 9.51527 22.539 9.39878C22.824 9.28229 23.0677 9.08502 23.2391 8.83191C23.4105 8.57881 23.502 8.28124 23.502 7.97684C23.502 7.56864 23.3376 7.17717 23.0451 6.88853C22.7525 6.59989 22.3557 6.43774 21.942 6.43774ZM27.922 9.54159C27.8965 8.47745 27.6945 7.42462 27.324 6.42491C26.9949 5.56885 26.4803 4.79406 25.816 4.15474C25.1723 3.49732 24.3854 2.99295 23.515 2.67977C22.5045 2.3029 21.4361 2.09903 20.356 2.07695C18.978 2 18.536 2 15 2C11.464 2 11.022 2 9.644 2.07695C8.5639 2.09903 7.49555 2.3029 6.485 2.67977C5.61657 2.99689 4.83057 3.50073 4.184 4.15474C3.51765 4.78985 3.00643 5.56614 2.689 6.42491C2.30701 7.42192 2.10037 8.47596 2.078 9.54159C2 10.9011 2 11.3372 2 14.8258C2 18.3145 2 18.7505 2.078 20.1101C2.10037 21.1757 2.30701 22.2297 2.689 23.2267C3.00643 24.0855 3.51765 24.8618 4.184 25.4969C4.83057 26.1509 5.61657 26.6548 6.485 26.9719C7.49555 27.3488 8.5639 27.5526 9.644 27.5747C11.022 27.6517 11.464 27.6517 15 27.6517C18.536 27.6517 18.978 27.6517 20.356 27.5747C21.4361 27.5526 22.5045 27.3488 23.515 26.9719C24.3854 26.6587 25.1723 26.1543 25.816 25.4969C26.4819 24.8589 26.9968 24.0838 27.324 23.2267C27.6945 22.227 27.8965 21.1742 27.922 20.1101C27.922 18.7505 28 18.3145 28 14.8258C28 11.3372 28 10.9011 27.922 9.54159ZM25.582 19.9562C25.5728 20.7703 25.4233 21.577 25.14 22.3418C24.9324 22.8999 24.599 23.4043 24.165 23.8167C23.7431 24.2403 23.233 24.5685 22.67 24.7787C21.8949 25.0582 21.0772 25.2057 20.252 25.2147C18.952 25.2789 18.471 25.2917 15.052 25.2917C11.633 25.2917 11.152 25.2917 9.852 25.2147C8.9951 25.2314 8.14179 25.1012 7.33 24.83C6.79204 24.6085 6.30548 24.2812 5.9 23.868C5.46852 23.456 5.1393 22.9512 4.938 22.3931C4.61956 21.6176 4.44348 20.7925 4.418 19.9562C4.418 18.6736 4.34 18.199 4.34 14.8258C4.34 11.4526 4.34 10.9781 4.418 9.6955C4.42274 8.86307 4.57678 8.03804 4.873 7.25859C5.10186 6.71723 5.45314 6.23465 5.9 5.84775C6.2938 5.4055 6.78222 5.05504 7.33 4.82168C8.12222 4.53884 8.95753 4.39137 9.8 4.3856C11.1 4.3856 11.581 4.30865 15 4.30865C18.419 4.30865 18.9 4.30865 20.2 4.3856C21.0252 4.39469 21.8429 4.54215 22.618 4.82168C23.2088 5.03799 23.739 5.38967 24.165 5.84775C24.5897 6.24281 24.9224 6.72419 25.14 7.25859C25.4292 8.03953 25.5787 8.86408 25.582 9.6955C25.647 10.9781 25.66 11.4526 25.66 14.8258C25.66 18.199 25.647 18.6736 25.582 19.9562ZM15 8.24618C13.6816 8.24871 12.3935 8.63676 11.2985 9.36128C10.2035 10.0858 9.35069 11.1143 8.84792 12.3168C8.34516 13.5193 8.21494 14.8418 8.47373 16.1173C8.73252 17.3928 9.36871 18.564 10.3019 19.4829C11.2351 20.4018 12.4234 21.0271 13.7167 21.28C15.01 21.5328 16.3503 21.4018 17.5681 20.9034C18.786 20.405 19.8267 19.5617 20.559 18.4799C21.2912 17.3982 21.682 16.1266 21.682 14.8258C21.6837 13.9602 21.512 13.1028 21.1766 12.3029C20.8413 11.503 20.3489 10.7765 19.7279 10.165C19.1069 9.5535 18.3695 9.06918 17.5581 8.73988C16.7467 8.41058 15.8774 8.24279 15 8.24618ZM15 19.0968C14.1438 19.0968 13.3068 18.8463 12.5949 18.377C11.883 17.9077 11.3282 17.2407 11.0005 16.4603C10.6729 15.6798 10.5871 14.8211 10.7542 13.9926C10.9212 13.1641 11.3335 12.4031 11.9389 11.8058C12.5444 11.2085 13.3157 10.8017 14.1555 10.6369C14.9952 10.4721 15.8656 10.5567 16.6566 10.8799C17.4477 11.2032 18.1238 11.7506 18.5994 12.453C19.0751 13.1553 19.329 13.9811 19.329 14.8258C19.329 15.3867 19.217 15.9421 18.9995 16.4603C18.7819 16.9784 18.4631 17.4493 18.0611 17.8459C17.6591 18.2425 17.1819 18.5571 16.6566 18.7717C16.1314 18.9864 15.5685 19.0968 15 19.0968Z" fill="black"/>
</svg>
