<svg width="40" height="40" viewBox="0 0 40 40" fill="none" xmlns="http://www.w3.org/2000/svg">
<path d="M13 3.3335H27C32.3334 3.3335 36.6667 7.66683 36.6667 13.0002V27.0002C36.6667 29.5639 35.6483 32.0227 33.8354 33.8355C32.0226 35.6484 29.5638 36.6668 27 36.6668H13C7.66671 36.6668 3.33337 32.3335 3.33337 27.0002V13.0002C3.33337 10.4364 4.35182 7.97765 6.16468 6.1648C7.97753 4.35195 10.4363 3.3335 13 3.3335ZM12.6667 6.66683C11.0754 6.66683 9.54929 7.29897 8.42407 8.42419C7.29885 9.54941 6.66671 11.0755 6.66671 12.6668V27.3335C6.66671 30.6502 9.35004 33.3335 12.6667 33.3335H27.3334C28.9247 33.3335 30.4508 32.7014 31.576 31.5761C32.7012 30.4509 33.3334 28.9248 33.3334 27.3335V12.6668C33.3334 9.35016 30.65 6.66683 27.3334 6.66683H12.6667ZM28.75 9.16683C29.3026 9.16683 29.8325 9.38632 30.2232 9.77702C30.6139 10.1677 30.8334 10.6976 30.8334 11.2502C30.8334 11.8027 30.6139 12.3326 30.2232 12.7233C29.8325 13.114 29.3026 13.3335 28.75 13.3335C28.1975 13.3335 27.6676 13.114 27.2769 12.7233C26.8862 12.3326 26.6667 11.8027 26.6667 11.2502C26.6667 10.6976 26.8862 10.1677 27.2769 9.77702C27.6676 9.38632 28.1975 9.16683 28.75 9.16683ZM20 11.6668C22.2102 11.6668 24.3298 12.5448 25.8926 14.1076C27.4554 15.6704 28.3334 17.79 28.3334 20.0002C28.3334 22.2103 27.4554 24.3299 25.8926 25.8927C24.3298 27.4555 22.2102 28.3335 20 28.3335C17.7899 28.3335 15.6703 27.4555 14.1075 25.8927C12.5447 24.3299 11.6667 22.2103 11.6667 20.0002C11.6667 17.79 12.5447 15.6704 14.1075 14.1076C15.6703 12.5448 17.7899 11.6668 20 11.6668ZM20 15.0002C18.674 15.0002 17.4022 15.5269 16.4645 16.4646C15.5268 17.4023 15 18.6741 15 20.0002C15 21.3262 15.5268 22.598 16.4645 23.5357C17.4022 24.4734 18.674 25.0002 20 25.0002C21.3261 25.0002 22.5979 24.4734 23.5356 23.5357C24.4733 22.598 25 21.3262 25 20.0002C25 18.6741 24.4733 17.4023 23.5356 16.4646C22.5979 15.5269 21.3261 15.0002 20 15.0002Z" fill="white"/>
</svg>
