<svg fill='white' width="80" height="80" viewBox="0 0 80 80" fill="none" xmlns="http://www.w3.org/2000/svg">
<path d="M25.5467 11.1628C25.1479 10.8789 24.6787 10.7102 24.1905 10.6753C23.7023 10.6403 23.2138 10.7404 22.7787 10.9646C22.3436 11.1887 21.9786 11.5284 21.7236 11.9462C21.4687 12.364 21.3336 12.844 21.3333 13.3335V66.6668C21.3336 67.1563 21.4687 67.6362 21.7236 68.0541C21.9786 68.4719 22.3436 68.8116 22.7787 69.0357C23.2138 69.2599 23.7023 69.36 24.1905 69.325C24.6787 69.29 25.1479 69.1214 25.5467 68.8375L62.88 42.1708C63.2257 41.9241 63.5075 41.5985 63.7019 41.2209C63.8963 40.8433 63.9977 40.4248 63.9977 40.0001C63.9977 39.5755 63.8963 39.1569 63.7019 38.7794C63.5075 38.4018 63.2257 38.0762 62.88 37.8295L25.5467 11.1628Z" />
</svg>
