<svg width="30" height="30" viewBox="0 0 30 30" fill="none" xmlns="http://www.w3.org/2000/svg">
<path d="M27.9047 21.0233C27.421 19.68 24.49 19.4922 23.1241 16.4156C23.0388 16.1844 23.053 16.0256 23.2806 15.8811C24.3335 15.1733 25.0734 14.7833 25.5002 13.96C25.8132 13.3678 25.8559 12.6744 25.614 12.0389C25.2868 11.1578 24.4616 10.5944 23.4514 10.5944C23.0957 10.5944 22.8111 10.6667 22.6688 10.6956C22.6831 10.0889 22.6688 9.45333 22.6119 8.81778C22.427 6.60778 21.6587 5.43778 20.8619 4.51333C20.3924 3.97889 18.5285 2 15 2C11.4715 2 9.60762 3.97889 9.1381 4.51333C8.34134 5.43778 7.57303 6.60778 7.38807 8.81778C7.34538 9.45333 7.33116 10.0889 7.33116 10.6956C7.17465 10.6522 6.90432 10.5944 6.54862 10.5944C5.55267 10.5944 4.71322 11.1433 4.38598 12.0389C4.1441 12.66 4.18679 13.3678 4.4998 13.96C4.94087 14.7978 5.66649 15.1733 6.71935 15.8811C6.947 16.04 6.96123 16.1844 6.87586 16.4156C5.49575 19.4922 2.57903 19.68 2.09528 21.0233C1.88186 21.6011 2.02414 22.2511 2.55058 22.8C3.36157 23.6522 4.86973 23.9122 5.16851 24.1144C5.41039 24.3167 5.38193 24.9233 6.06487 25.4144C6.60553 25.79 7.2031 25.8189 7.84336 25.8333C9.70722 25.9056 10.1198 26.2233 10.8312 26.6711C11.7276 27.2344 12.9512 28 15 28C17.0488 28 18.2724 27.2344 19.1688 26.6711C19.8802 26.2233 20.2928 25.9056 22.1566 25.8333C22.7969 25.8044 23.3945 25.79 23.9351 25.4144C24.6323 24.9233 24.6038 24.3167 24.8315 24.1144C25.1303 23.9122 26.6384 23.6522 27.4494 22.8C27.9759 22.2511 28.1181 21.6011 27.9047 21.0233ZM26.4392 21.7889C25.9128 22.3522 24.6465 22.5111 23.9778 22.9733C23.2949 23.58 23.4087 24.0422 23.1384 24.23C22.9534 24.36 22.6262 24.3744 22.114 24.4033C20.122 24.4756 19.3964 24.8511 18.5285 25.4C16.4939 26.6711 15.3557 26.5556 15 26.5556C14.6443 26.5556 13.5061 26.6711 11.4857 25.3856C10.6178 24.8367 9.90641 24.4756 7.90027 24.3889C7.38807 24.3744 7.06082 24.3456 6.87586 24.2156C6.60553 24.0278 6.70513 23.5656 6.03641 22.9589C5.35348 22.4967 4.10142 22.3378 3.57499 21.7744C3.48962 21.6878 3.41848 21.5722 3.40425 21.5578C3.50385 21.4133 3.9876 21.1244 4.34329 20.9222C5.45307 20.2578 7.16042 19.2756 8.19906 16.95C8.56898 15.9389 8.24174 15.13 7.51612 14.6533C5.87991 13.5989 5.90836 13.5556 5.75186 13.2667C5.69565 13.1559 5.66283 13.0345 5.65548 12.9101C5.64813 12.7858 5.66641 12.6612 5.70917 12.5444C5.87991 12.0822 6.34943 12.0389 6.53439 12.0389C6.80472 12.0389 6.79049 12.0533 8.76817 12.5733C8.73972 10.5511 8.71126 9.90111 8.79663 8.94778C8.95314 7.05556 9.60762 6.16 10.191 5.48111C10.5893 5.04778 12.1402 3.41556 15 3.44444C17.8598 3.41556 19.4107 5.04778 19.7948 5.48111C20.3782 6.16 21.0326 7.05556 21.1891 8.94778C21.2745 9.90111 21.2461 10.5511 21.2176 12.5733C23.2095 12.0533 23.1811 12.0389 23.4514 12.0389C23.6506 12.0389 24.1059 12.0822 24.2766 12.5444C24.3762 12.79 24.362 13.05 24.2339 13.2667C24.0774 13.5556 24.1059 13.5844 22.4839 14.6678C21.7583 15.1444 21.431 15.9533 21.8009 16.9644C22.8396 19.29 24.5469 20.2722 25.6567 20.9367C26.0124 21.1533 26.4962 21.4278 26.5957 21.5722C26.5957 21.5867 26.5104 21.7022 26.4392 21.7889Z" fill="black"/>
</svg>
