<svg fill="black" width="40" height="40" viewBox="0 0 40 40" fill="none" xmlns="http://www.w3.org/2000/svg">
<path d="M29.8333 18.1668C24.5 15.0002 15.5833 14.6668 10.5 16.2502C9.66666 16.5002 8.83333 16.0002 8.58333 15.2502C8.33333 14.4168 8.83333 13.5835 9.58333 13.3335C15.5 11.5835 25.25 11.9168 31.4167 15.5835C32.1667 16.0002 32.4167 17.0002 32 17.7502C31.5833 18.3335 30.5833 18.5835 29.8333 18.1668ZM29.6667 22.8335C29.25 23.4168 28.5 23.6668 27.9167 23.2502C23.4167 20.5002 16.5833 19.6668 11.3333 21.3335C10.6667 21.5002 9.91666 21.1668 9.74999 20.5002C9.58333 19.8335 9.91666 19.0835 10.5833 18.9168C16.6667 17.0835 24.1667 18.0002 29.3333 21.1668C29.8333 21.4168 30.0833 22.2502 29.6667 22.8335ZM27.6667 27.4168C27.3333 27.9168 26.75 28.0835 26.25 27.7502C22.3333 25.3335 17.4167 24.8335 11.5833 26.1668C11 26.3335 10.5 25.9168 10.3333 25.4168C10.1667 24.8335 10.5833 24.3335 11.0833 24.1668C17.4167 22.7502 22.9167 23.3335 27.25 26.0002C27.8333 26.2502 27.9167 26.9168 27.6667 27.4168ZM20 3.3335C17.8113 3.3335 15.644 3.76459 13.6219 4.60217C11.5998 5.43975 9.76252 6.66741 8.21488 8.21505C5.08928 11.3407 3.33333 15.5799 3.33333 20.0002C3.33333 24.4204 5.08928 28.6597 8.21488 31.7853C9.76252 33.3329 11.5998 34.5606 13.6219 35.3982C15.644 36.2357 17.8113 36.6668 20 36.6668C24.4203 36.6668 28.6595 34.9109 31.7851 31.7853C34.9107 28.6597 36.6667 24.4204 36.6667 20.0002C36.6667 17.8115 36.2356 15.6442 35.398 13.6221C34.5604 11.6 33.3328 9.76269 31.7851 8.21505C30.2375 6.66741 28.4001 5.43975 26.3781 4.60217C24.356 3.76459 22.1887 3.3335 20 3.3335Z" />
</svg>
