<svg width="30" height="30" viewBox="0 0 30 30" fill="none" xmlns="http://www.w3.org/2000/svg">
<path d="M21.4541 6.01876C20.4952 4.90651 19.9667 3.47839 19.9668 2H15.6314V19.6711C15.5986 20.6276 15.2014 21.5338 14.5234 22.1985C13.8454 22.8632 12.9397 23.2344 11.9974 23.2339C10.0051 23.2339 8.34949 21.5808 8.34949 19.5286C8.34949 17.0775 10.6786 15.2391 13.0778 15.9944V11.4911C8.23725 10.8356 4 14.6548 4 19.5286C4 24.2742 7.87245 27.6517 11.9834 27.6517C16.389 27.6517 19.9668 24.0177 19.9668 19.5286V10.5648C21.7249 11.8472 23.8356 12.5352 26 12.5314V8.12789C26 8.12789 23.3622 8.25615 21.4541 6.01876Z" fill="black"/>
</svg>
