<svg  viewBox="0 0 400 55" fill="1D1D1B" xmlns="http://www.w3.org/2000/svg">
    <g clip-path="url(#clip0_6_3)" >
        <path d="M182.465 52.6206C180.136 53.629 177.513 54.1332 174.583 54.1332C172.279 54.1332 170.109 53.7949 168.067 53.1248C166.025 52.4547 164.263 51.4591 162.776 50.138C161.289 48.8169 160.115 47.215 159.247 45.3131C158.385 43.4176 157.951 41.2477 157.951 38.8033C157.951 36.978 158.264 35.3123 158.89 33.7997C159.515 32.2872 160.364 30.9214 161.442 29.696C162.521 28.4707 163.759 27.3793 165.15 26.422C166.542 25.4647 167.984 24.6222 169.471 23.9011C168.08 22.2226 166.918 20.5441 165.98 18.8655C165.042 17.187 164.576 15.2214 164.576 12.9621C164.576 11.1878 164.946 9.57955 165.693 8.13719C166.44 6.69483 167.429 5.46308 168.68 4.42917C169.924 3.39527 171.354 2.60388 172.962 2.05502C174.57 1.50616 176.236 1.22534 177.966 1.22534C179.931 1.22534 181.769 1.48701 183.473 2.01673C185.178 2.54644 186.665 3.32506 187.935 4.35897C189.205 5.39287 190.213 6.67568 190.96 8.20739C191.7 9.74549 192.077 11.5197 192.077 13.5301C192.077 16.5552 191.202 19.0953 189.447 21.1567C187.692 23.2182 185.522 24.9477 182.931 26.339L189.549 34.4699C190.079 33.5125 190.487 32.5169 190.775 31.483C191.062 30.4491 191.279 29.4088 191.419 28.3558H200.271C200.029 30.6597 199.505 32.8871 198.688 35.0506C197.872 37.2078 196.742 39.199 195.306 41.0243L205.741 53.1886H193.219L189.045 48.0766C186.984 50.0933 184.788 51.6059 182.459 52.6079L182.465 52.6206ZM172.209 31.8915C171.347 32.4212 170.575 33.0403 169.905 33.7614C169.235 34.4826 168.692 35.274 168.284 36.1356C167.876 36.9972 167.671 37.9609 167.671 39.0139C167.671 39.9266 167.876 40.8009 168.284 41.6434C168.692 42.4858 169.229 43.2006 169.905 43.8005C170.575 44.4005 171.354 44.8791 172.241 45.2429C173.128 45.6003 174.053 45.779 175.011 45.779C176.836 45.779 178.432 45.3578 179.797 44.5217C181.163 43.6793 182.446 42.5879 183.646 41.2477L174.864 30.5257C173.951 30.9086 173.064 31.3681 172.203 31.8915H172.209ZM181.744 9.50935C180.806 8.55203 179.714 8.06699 178.47 8.06699C177.225 8.06699 176.14 8.48821 175.234 9.32426C174.322 10.1667 173.868 11.2581 173.868 12.5983C173.868 14.2321 174.302 15.6234 175.164 16.7722C176.026 17.921 176.938 19.1017 177.902 20.3015C179.338 19.3889 180.576 18.406 181.61 17.353C182.644 16.2999 183.161 14.832 183.161 12.9621C183.161 11.6218 182.695 10.4667 181.757 9.50935H181.744Z" fill="inherit"/>
        <path d="M38.8608 1.23804V10.8431H11.424V21.9736H36.6015V30.8511H11.424V43.5835H39.4416V53.1886H0V1.23804H38.8608Z" fill="inherit"/>
        <path d="M77.9322 52.793C75.4559 53.8333 72.9605 54.3566 70.4396 54.3566C66.4635 54.3566 62.8831 53.6674 59.7048 52.2824C56.5265 50.8975 53.846 48.9956 51.6633 46.5704C49.4807 44.1452 47.8085 41.2924 46.6406 38.0184C45.4791 34.7443 44.8919 31.215 44.8919 27.4304C44.8919 23.6458 45.4727 19.9506 46.6406 16.6255C47.8022 13.3004 49.4807 10.4029 51.6633 7.92664C53.846 5.45676 56.5265 3.51021 59.7048 2.10614C62.8831 0.702069 66.4571 -0.00634766 70.4396 -0.00634766C73.1073 -0.00634766 75.6921 0.395727 78.1875 1.19349C80.6829 1.99126 82.9422 3.17195 84.9525 4.72281C86.9629 6.27367 88.6286 8.19469 89.937 10.4731C91.2453 12.7579 92.0495 15.3746 92.3367 18.3359H81.4232C80.7403 15.4256 79.432 13.243 77.4918 11.7878C75.5517 10.3327 73.1967 9.60514 70.4332 9.60514C67.8612 9.60514 65.6785 10.1029 63.8851 11.0986C62.0917 12.0942 60.6366 13.428 59.5198 15.1002C58.4029 16.7723 57.5923 18.6805 57.0818 20.8122C56.5712 22.9502 56.3159 25.152 56.3159 27.4368C56.3159 29.7216 56.5712 31.7447 57.0818 33.8062C57.5923 35.8676 58.4029 37.7248 59.5198 39.3714C60.6366 41.018 62.0917 42.3455 63.8851 43.3347C65.6785 44.3303 67.8612 44.8281 70.4332 44.8281C74.2178 44.8281 77.1408 43.8708 79.2022 41.9562C81.2637 40.0415 82.4635 37.2589 82.8018 33.6211H71.3075V25.1073H93.1408V53.1951H85.8652L84.7036 47.298C82.6677 49.9211 80.4085 51.7463 77.9386 52.793H77.9322Z" fill="inherit"/>
        <path d="M101.878 16.6255C103.04 13.3004 104.718 10.4029 106.901 7.92664C109.083 5.45676 111.764 3.51021 114.942 2.10614C118.121 0.702069 121.694 -0.00634766 125.677 -0.00634766C129.659 -0.00634766 133.291 0.695687 136.444 2.10614C139.596 3.51021 142.264 5.45676 144.447 7.92664C146.629 10.4029 148.302 13.3004 149.47 16.6255C150.631 19.9506 151.218 23.5501 151.218 27.4304C151.218 31.3108 150.637 34.7443 149.47 38.0184C148.308 41.2924 146.629 44.1452 144.447 46.5704C142.264 48.9956 139.596 50.8975 136.444 52.2824C133.291 53.6674 129.698 54.3566 125.677 54.3566C121.656 54.3566 118.121 53.6674 114.942 52.2824C111.764 50.8975 109.083 48.9956 106.901 46.5704C104.718 44.1452 103.046 41.2924 101.878 38.0184C100.716 34.7443 100.129 31.215 100.129 27.4304C100.129 23.6458 100.71 19.9506 101.878 16.6255ZM112.319 33.7998C112.83 35.8612 113.64 37.7184 114.757 39.365C115.874 41.0116 117.329 42.3391 119.122 43.3283C120.916 44.3239 123.099 44.8217 125.671 44.8217C128.243 44.8217 130.425 44.3239 132.219 43.3283C134.012 42.3327 135.467 41.0116 136.584 39.365C137.701 37.7184 138.511 35.8612 139.022 33.7998C139.533 31.7384 139.788 29.6195 139.788 27.4304C139.788 25.2414 139.533 22.9438 139.022 20.8058C138.511 18.6741 137.701 16.7659 136.584 15.0938C135.467 13.4217 134.012 12.0878 132.219 11.0922C130.425 10.0966 128.243 9.59876 125.671 9.59876C123.099 9.59876 120.916 10.0966 119.122 11.0922C117.329 12.0878 115.874 13.4217 114.757 15.0938C113.64 16.7659 112.83 18.6741 112.319 20.8058C111.809 22.9438 111.553 25.1456 111.553 27.4304C111.553 29.7152 111.809 31.7384 112.319 33.7998Z" fill="inherit"/>
        <path d="M253.032 1.23804V10.8431H225.596V21.9736H250.773V30.8511H225.596V43.5835H253.613V53.1886H214.172V1.23804H253.032Z" fill="inherit"/>
        <path d="M290.342 1.23804L309.769 53.195H297.911L293.98 41.6242H274.553L270.475 53.195H258.98L278.625 1.23804H290.342ZM291 33.1104L284.452 14.047H284.305L277.54 33.1104H291Z" fill="inherit"/>
        <path d="M323.012 40.3861C323.644 41.5987 324.48 42.5815 325.52 43.3346C326.561 44.0877 327.786 44.643 329.197 45.0067C330.601 45.3705 332.062 45.5556 333.562 45.5556C334.583 45.5556 335.674 45.4726 336.836 45.3003C337.998 45.128 339.095 44.8025 340.11 44.3175C341.131 43.8324 341.974 43.1623 342.657 42.3135C343.339 41.4647 343.678 40.3861 343.678 39.0778C343.678 37.6737 343.231 36.5313 342.331 35.6569C341.431 34.7826 340.257 34.055 338.802 33.4742C337.347 32.8935 335.694 32.3829 333.856 31.9489C332.011 31.5149 330.141 31.0299 328.252 30.4938C326.312 30.0087 324.416 29.4152 322.578 28.7132C320.734 28.0111 319.087 27.0985 317.632 25.9816C316.177 24.8647 315.003 23.4734 314.103 21.7949C313.203 20.1228 312.756 18.0997 312.756 15.7192C312.756 13.0514 313.324 10.7347 314.467 8.76901C315.603 6.80332 317.096 5.16949 318.941 3.86115C320.785 2.55282 322.872 1.58273 325.201 0.950903C327.531 0.319072 329.86 0.00634766 332.183 0.00634766C334.902 0.00634766 337.506 0.31269 340.008 0.918992C342.503 1.52529 344.724 2.50814 346.664 3.86754C348.605 5.22693 350.143 6.96287 351.285 9.06897C352.421 11.1815 352.996 13.7407 352.996 16.7467H341.935C341.84 15.1958 341.508 13.9066 340.952 12.8919C340.391 11.8707 339.651 11.073 338.731 10.4922C337.812 9.91141 336.753 9.49658 335.566 9.25405C334.379 9.01153 333.077 8.89027 331.673 8.89027C330.754 8.89027 329.828 8.98601 328.909 9.18385C327.984 9.3817 327.148 9.71995 326.401 10.205C325.648 10.69 325.029 11.2963 324.544 12.0239C324.059 12.7515 323.816 13.6705 323.816 14.7874C323.816 15.8085 324.008 16.6318 324.397 17.2636C324.787 17.8955 325.552 18.4762 326.688 19.0123C327.824 19.5484 329.401 20.0781 331.418 20.6142C333.428 21.1503 336.064 21.8269 339.312 22.6501C340.282 22.848 341.629 23.199 343.352 23.7032C345.075 24.2138 346.786 25.0243 348.483 26.1412C350.181 27.258 351.649 28.7515 352.887 30.615C354.125 32.485 354.744 34.8719 354.744 37.7822C354.744 40.1627 354.285 42.3645 353.359 44.4068C352.434 46.4427 351.068 48.2042 349.249 49.6785C347.43 51.1591 345.171 52.3079 342.478 53.1376C339.785 53.9609 336.67 54.3757 333.128 54.3757C330.262 54.3757 327.486 54.0247 324.799 53.3227C322.106 52.6206 319.732 51.5165 317.664 50.0103C315.603 48.5105 313.962 46.5895 312.756 44.26C311.544 41.9306 310.963 39.1671 311.008 35.9633H322.068C322.068 37.712 322.38 39.1926 323.012 40.4052V40.3861Z" fill="inherit"/>
        <path d="M357.431 10.8431V1.23804H400V10.8431H384.428V53.195H373.004V10.8431H357.431Z" fill="inherit"/>
    </g>
</svg>
