<svg width="400" height="24" viewBox="0 0 400 24" fill="#231F20" xmlns="http://www.w3.org/2000/svg">
<path d="M306.515 13.1377C305.708 16.9099 302.977 19.5374 298.528 19.5374C293.117 19.5374 290.151 15.453 290.151 9.75571C290.151 3.98033 293.221 0 298.606 0C302.873 0 305.63 2.57551 306.437 6.39975H304.616C303.861 3.2519 301.39 1.66497 298.554 1.66497C294.834 1.66497 291.998 4.55267 291.998 9.75571C291.998 14.7767 294.678 17.8725 298.554 17.8725C302.17 17.8725 304.174 15.5831 304.694 13.1377H306.515Z" fill="inherit"/>
<path d="M314.481 4.96891C317.837 4.96891 320.829 7.15419 320.829 12.2532C320.829 17.3522 317.837 19.5374 314.481 19.5374C311.125 19.5374 308.16 17.3522 308.16 12.2532C308.16 7.15419 311.125 4.96891 314.481 4.96891ZM314.481 18.0546C317.161 18.0546 319.112 16.2595 319.112 12.2532C319.112 8.24683 317.161 6.45178 314.481 6.45178C311.802 6.45178 309.877 8.24683 309.877 12.2532C309.877 16.2595 311.802 18.0546 314.481 18.0546Z" fill="inherit"/>
<path d="M325.245 19.1992H323.632V5.20305H325.245V7.57043C325.921 6.24366 327.17 4.96891 329.641 4.96891C331.879 4.96891 333.179 5.95749 333.752 7.75254C334.818 5.9835 336.223 4.96891 338.486 4.96891C341.66 4.96891 342.935 6.94607 342.935 10.3801V19.1992H341.322V10.8223C341.322 8.1948 340.776 6.42576 338.07 6.42576C335.781 6.42576 334.09 8.45495 334.09 11.4207V19.1992H332.477V10.8223C332.477 8.1948 331.931 6.42576 329.225 6.42576C326.936 6.42576 325.245 8.45495 325.245 11.4207V19.1992Z" fill="inherit"/>
<path d="M352.768 19.5374C350.713 19.5374 349.022 18.5749 348.033 16.8839V23.7519H346.42V5.20305H348.033V7.59645C349.022 5.93147 350.713 4.96891 352.768 4.96891C355.994 4.96891 358.622 7.59645 358.622 12.2532C358.622 16.8839 355.994 19.5374 352.768 19.5374ZM352.43 18.0806C355.031 18.0806 356.879 15.9734 356.879 12.2532C356.879 8.533 355.031 6.42576 352.43 6.42576C350.323 6.42576 347.929 8.11675 347.929 12.2532C347.929 16.3896 350.323 18.0806 352.43 18.0806Z" fill="inherit"/>
<path d="M370.203 17.066C369.292 18.5489 367.549 19.5374 364.948 19.5374C362.346 19.5374 360.317 18.0286 360.317 15.7132C360.317 12.5393 363.439 11.3687 370.177 10.6923V10.198C370.177 7.02411 368.304 6.3217 366.275 6.3217C363.907 6.3217 362.476 7.64848 362.346 9.46954H360.655C361.019 6.71193 363.257 4.89086 366.379 4.89086C369.63 4.89086 371.79 6.24366 371.79 10.4061C371.79 12.3312 371.764 13.606 371.764 14.7246C371.764 16.3115 371.842 17.6904 371.92 19.1992H370.281L370.203 17.066ZM365.312 18.1066C367.913 18.1066 370.255 16.7798 370.255 12.7995V12.1231C364.558 12.7475 362.112 13.5019 362.112 15.6872C362.112 17.1701 363.465 18.1066 365.312 18.1066Z" fill="inherit"/>
<path d="M376.829 7.45237C377.512 6.11212 378.905 4.82443 381.533 4.82443C384.87 4.82443 386.289 6.82167 386.289 10.2905V19.1992H384.66V10.7373C384.66 8.08307 383.977 6.29608 381.112 6.29608C378.668 6.29608 376.829 8.34587 376.829 11.3417V19.1992H375.199V5.06095H376.829V7.45237Z" fill="inherit"/>
<path d="M389.041 23.7981V22.379H389.988C391.328 22.379 391.985 22.3002 392.721 20.3293L393.167 19.1992L387.754 5.06095H389.593L393.982 16.9392L398.239 5.06095H400L394.192 20.6183C393.194 23.3514 392.51 23.7981 389.961 23.7981H389.041Z" fill="inherit"/>
<path d="M150.587 0.618746H142.278V19.4445H144.75V11.7016H150.587C153.871 11.7016 156.689 9.68254 156.689 6.16018C156.689 2.63781 154.028 0.618746 150.587 0.618746ZM150.373 9.35548H144.75V2.9586H150.373C152.418 2.9586 154.085 3.95241 154.085 6.16018C154.085 8.36794 152.418 9.36175 150.373 9.36175" fill="inherit"/>
<path d="M165.52 9.35548L159.84 0.618746H156.858L164.281 11.6953V19.4445H166.759V11.6953L174.206 0.618746H171.288L165.52 9.35548Z" fill="inherit"/>
<path d="M268.115 10.8651H278.091V8.5252H268.115V2.9586H278.896V0.618746H265.643V19.4445H279.166V17.1047H268.115V10.8651Z" fill="inherit"/>
<path d="M224.878 17.589L218.827 0.618746H214.254V19.4445H216.726V1.93334L222.991 19.4445H226.758L233.048 1.93334V19.4445H235.527V0.618746H230.929L224.878 17.589Z" fill="inherit"/>
<path d="M242.056 0.618746H239.584V19.4445H242.056V0.618746Z" fill="inherit"/>
<path d="M190.654 6.16018C190.654 2.63781 187.994 0.618746 184.553 0.618746H176.244V19.4445H178.716V11.7016H183.584L187.534 19.4445H190.384L186.113 11.5381C188.679 10.9971 190.654 9.10387 190.654 6.16018ZM178.716 2.9586H184.333C186.377 2.9586 188.044 3.95241 188.044 6.16018C188.044 8.36794 186.377 9.36175 184.333 9.36175H178.716V2.9586Z" fill="inherit"/>
<path d="M200.592 0.618746H204.033L211.914 19.4445H209.172L207.234 14.6579H197.391L195.428 19.4445H192.711L200.592 0.618746ZM206.322 12.3935L202.316 2.5812L198.284 12.3935H206.322Z" fill="inherit"/>
<path d="M253.107 0.618746H246.113V19.4445H253.107C258.699 19.4445 262.41 15.8656 262.41 10.1166C262.41 4.36755 259.02 0.625042 253.107 0.625042M253.107 17.111H248.591V2.9649H253.107C257.573 2.9649 259.938 5.78908 259.938 10.1166C259.938 14.444 257.466 17.1047 253.107 17.1047" fill="inherit"/>
<path d="M30.2797 2.2038L36.5068 19.6144H40.2556L46.5141 2.2038V19.6144H48.9734V0.889208H44.4006L38.3812 17.7651L32.3617 0.889208H27.8204V19.6144H30.2797V2.2038Z" fill="inherit"/>
<path d="M120.276 2.60007L129.981 19.6144H134.234V0.889208H131.774V17.9035L122.037 0.889208H117.817V19.6144H120.276V2.60007Z" fill="inherit"/>
<path d="M75.2339 0.889208H72.7745V19.6081H75.2339V0.889208Z" fill="inherit"/>
<path d="M90.0593 6.36776C89.4429 4.04048 87.8389 2.94603 85.4865 2.94603C83.8574 2.94603 81.8509 3.6442 81.8509 5.56892C81.8509 7.8962 84.9267 8.6447 86.7445 8.99065C89.7951 9.5819 93.1351 10.6764 93.1351 14.3371C93.1351 17.9978 89.3926 19.8722 86.0715 19.8722C82.1654 19.8722 78.555 17.199 78.4292 12.7332H80.8697C81.1276 15.8089 82.9957 17.545 86.0966 17.545C88.0465 17.545 90.5876 16.7713 90.5876 14.4189C90.5876 12.0664 87.7257 11.5318 85.8828 11.211C81.549 10.4625 79.3853 8.5881 79.3853 5.61925C79.3853 2.22269 82.7567 0.618746 85.6941 0.618746C88.6315 0.618746 91.8645 2.22269 92.5187 6.36776H90.053H90.0593Z" fill="inherit"/>
<path d="M59.2071 0.889208H62.6289L70.4661 19.6081H67.7363L65.8116 14.8466H56.0244L54.0746 19.6081H51.3762L59.2134 0.889208H59.2071ZM64.9058 12.6011L60.918 2.83909L56.905 12.6011H64.9058Z" fill="inherit"/>
<path d="M104.922 0.625042C99.5193 0.625042 95.2674 4.74495 95.2674 10.2549C95.2674 15.7649 99.4376 19.8848 104.922 19.8848C110.407 19.8848 114.603 15.7649 114.603 10.2549C114.603 4.74495 110.432 0.625042 104.922 0.625042ZM104.922 17.5575C100.752 17.5575 97.8336 14.4818 97.8336 10.2801C97.8336 6.07842 100.614 2.95231 104.922 2.95231C109.231 2.95231 112.011 6.00294 112.011 10.2549C112.011 14.5069 109.206 17.5575 104.922 17.5575Z" fill="inherit"/>
<path d="M7.15419 0.294126H9.13135L16.3116 19.1552H14.4124L12.6174 14.4204H3.64213L1.8731 19.1552H0L7.15419 0.294126ZM4.24048 12.8075H11.993L8.09074 2.45339L4.24048 12.8075Z" fill="inherit"/>
</svg>
