<svg width="400" height="55" viewBox="0 0 400 55" fill="none" xmlns="http://www.w3.org/2000/svg">
<g clip-path="url(#clip0_857_3)">
<path d="M182.465 52.6204C180.136 53.6288 177.513 54.133 174.583 54.133C172.279 54.133 170.109 53.7947 168.067 53.1246C166.025 52.4545 164.263 51.4589 162.776 50.1378C161.289 48.8167 160.115 47.2148 159.247 45.3129C158.385 43.4174 157.951 41.2475 157.951 38.8031C157.951 36.9778 158.264 35.3121 158.89 33.7995C159.515 32.287 160.364 30.9212 161.442 29.6958C162.521 28.4705 163.759 27.3791 165.15 26.4218C166.542 25.4645 167.984 24.622 169.471 23.9009C168.08 22.2224 166.918 20.5439 165.98 18.8653C165.042 17.1868 164.576 15.2212 164.576 12.9619C164.576 11.1876 164.946 9.57931 165.693 8.13695C166.44 6.69459 167.429 5.46284 168.68 4.42893C169.924 3.39503 171.354 2.60364 172.962 2.05478C174.57 1.50592 176.236 1.2251 177.966 1.2251C179.931 1.2251 181.769 1.48677 183.473 2.01649C185.178 2.5462 186.665 3.32482 187.935 4.35873C189.205 5.39263 190.213 6.67544 190.96 8.20715C191.7 9.74525 192.077 11.5195 192.077 13.5299C192.077 16.555 191.202 19.0951 189.447 21.1565C187.692 23.218 185.522 24.9475 182.931 26.3388L189.549 34.4697C190.079 33.5123 190.487 32.5167 190.775 31.4828C191.062 30.4489 191.279 29.4086 191.419 28.3556H200.271C200.029 30.6595 199.505 32.8869 198.688 35.0504C197.872 37.2076 196.742 39.1988 195.306 41.0241L205.741 53.1884H193.219L189.045 48.0764C186.984 50.0931 184.788 51.6057 182.459 52.6077L182.465 52.6204ZM172.209 31.8913C171.347 32.421 170.575 33.0401 169.905 33.7612C169.235 34.4824 168.692 35.2738 168.284 36.1354C167.876 36.997 167.671 37.9607 167.671 39.0137C167.671 39.9264 167.876 40.8007 168.284 41.6432C168.692 42.4856 169.229 43.2004 169.905 43.8003C170.575 44.4003 171.354 44.8789 172.241 45.2427C173.128 45.6001 174.053 45.7788 175.011 45.7788C176.836 45.7788 178.432 45.3576 179.797 44.5215C181.163 43.6791 182.446 42.5877 183.646 41.2475L174.864 30.5255C173.951 30.9084 173.064 31.3679 172.203 31.8913H172.209ZM181.744 9.50911C180.806 8.55179 179.714 8.06675 178.47 8.06675C177.225 8.06675 176.14 8.48797 175.234 9.32402C174.322 10.1665 173.868 11.2579 173.868 12.5981C173.868 14.2319 174.302 15.6232 175.164 16.772C176.026 17.9208 176.938 19.1015 177.902 20.3013C179.338 19.3887 180.576 18.4058 181.61 17.3528C182.644 16.2997 183.161 14.8318 183.161 12.9619C183.161 11.6216 182.695 10.4665 181.757 9.50911H181.744Z" fill="white"/>
<path d="M38.8608 1.23828V10.8433H11.424V21.9738H36.6015V30.8513H11.424V43.5837H39.4416V53.1888H0V1.23828H38.8608Z" fill="white"/>
<path d="M77.9319 52.793C75.4556 53.8333 72.9602 54.3566 70.4393 54.3566C66.4632 54.3566 62.8828 53.6674 59.7045 52.2824C56.5262 50.8975 53.8457 48.9956 51.663 46.5704C49.4804 44.1452 47.8082 41.2924 46.6403 38.0184C45.4788 34.7443 44.8916 31.215 44.8916 27.4304C44.8916 23.6458 45.4724 19.9506 46.6403 16.6255C47.8019 13.3004 49.4804 10.4029 51.663 7.92664C53.8457 5.45676 56.5262 3.51021 59.7045 2.10614C62.8828 0.702069 66.4568 -0.00634766 70.4393 -0.00634766C73.107 -0.00634766 75.6918 0.395727 78.1872 1.19349C80.6826 1.99126 82.9419 3.17195 84.9522 4.72281C86.9626 6.27367 88.6283 8.19469 89.9367 10.4731C91.245 12.7579 92.0492 15.3746 92.3364 18.3359H81.4229C80.74 15.4256 79.4317 13.243 77.4915 11.7878C75.5514 10.3327 73.1964 9.60514 70.4329 9.60514C67.8609 9.60514 65.6782 10.1029 63.8848 11.0986C62.0914 12.0942 60.6363 13.428 59.5195 15.1002C58.4026 16.7723 57.592 18.6805 57.0815 20.8122C56.5709 22.9502 56.3156 25.152 56.3156 27.4368C56.3156 29.7216 56.5709 31.7447 57.0815 33.8062C57.592 35.8676 58.4026 37.7248 59.5195 39.3714C60.6363 41.018 62.0914 42.3455 63.8848 43.3347C65.6782 44.3303 67.8609 44.8281 70.4329 44.8281C74.2175 44.8281 77.1405 43.8708 79.2019 41.9562C81.2634 40.0415 82.4632 37.2589 82.8015 33.6211H71.3072V25.1073H93.1405V53.1951H85.8649L84.7033 47.298C82.6674 49.9211 80.4082 51.7463 77.9383 52.793H77.9319Z" fill="white"/>
<path d="M101.878 16.6255C103.04 13.3004 104.718 10.4029 106.901 7.92664C109.083 5.45676 111.764 3.51021 114.942 2.10614C118.121 0.702069 121.694 -0.00634766 125.677 -0.00634766C129.659 -0.00634766 133.291 0.695687 136.444 2.10614C139.596 3.51021 142.264 5.45676 144.447 7.92664C146.629 10.4029 148.302 13.3004 149.47 16.6255C150.631 19.9506 151.218 23.5501 151.218 27.4304C151.218 31.3108 150.637 34.7443 149.47 38.0184C148.308 41.2924 146.629 44.1452 144.447 46.5704C142.264 48.9956 139.596 50.8975 136.444 52.2824C133.291 53.6674 129.698 54.3566 125.677 54.3566C121.656 54.3566 118.121 53.6674 114.942 52.2824C111.764 50.8975 109.083 48.9956 106.901 46.5704C104.718 44.1452 103.046 41.2924 101.878 38.0184C100.716 34.7443 100.129 31.215 100.129 27.4304C100.129 23.6458 100.71 19.9506 101.878 16.6255ZM112.319 33.7998C112.83 35.8612 113.64 37.7184 114.757 39.365C115.874 41.0116 117.329 42.3391 119.122 43.3283C120.916 44.3239 123.099 44.8217 125.671 44.8217C128.243 44.8217 130.425 44.3239 132.219 43.3283C134.012 42.3327 135.467 41.0116 136.584 39.365C137.701 37.7184 138.511 35.8612 139.022 33.7998C139.533 31.7384 139.788 29.6195 139.788 27.4304C139.788 25.2414 139.533 22.9438 139.022 20.8058C138.511 18.6741 137.701 16.7659 136.584 15.0938C135.467 13.4217 134.012 12.0878 132.219 11.0922C130.425 10.0966 128.243 9.59876 125.671 9.59876C123.099 9.59876 120.916 10.0966 119.122 11.0922C117.329 12.0878 115.874 13.4217 114.757 15.0938C113.64 16.7659 112.83 18.6741 112.319 20.8058C111.809 22.9438 111.553 25.1456 111.553 27.4304C111.553 29.7152 111.809 31.7384 112.319 33.7998Z" fill="white"/>
<path d="M253.032 1.23828V10.8433H225.596V21.9738H250.773V30.8513H225.596V43.5837H253.613V53.1888H214.172V1.23828H253.032Z" fill="white"/>
<path d="M290.342 1.23828L309.769 53.1952H297.911L293.98 41.6244H274.553L270.475 53.1952H258.98L278.625 1.23828H290.342ZM291 33.1106L284.452 14.0472H284.305L277.54 33.1106H291Z" fill="white"/>
<path d="M323.012 40.3861C323.644 41.5987 324.48 42.5815 325.52 43.3346C326.561 44.0877 327.786 44.643 329.197 45.0067C330.601 45.3705 332.062 45.5556 333.562 45.5556C334.583 45.5556 335.674 45.4726 336.836 45.3003C337.998 45.128 339.095 44.8025 340.11 44.3175C341.131 43.8324 341.974 43.1623 342.657 42.3135C343.339 41.4647 343.678 40.3861 343.678 39.0778C343.678 37.6737 343.231 36.5313 342.331 35.6569C341.431 34.7826 340.257 34.055 338.802 33.4742C337.347 32.8935 335.694 32.3829 333.856 31.9489C332.011 31.5149 330.141 31.0299 328.252 30.4938C326.312 30.0087 324.416 29.4152 322.578 28.7132C320.734 28.0111 319.087 27.0985 317.632 25.9816C316.177 24.8647 315.003 23.4734 314.103 21.7949C313.203 20.1228 312.756 18.0997 312.756 15.7192C312.756 13.0514 313.324 10.7347 314.467 8.76901C315.603 6.80332 317.096 5.16949 318.941 3.86115C320.785 2.55282 322.872 1.58273 325.201 0.950903C327.531 0.319072 329.86 0.00634766 332.183 0.00634766C334.902 0.00634766 337.506 0.31269 340.008 0.918992C342.503 1.52529 344.724 2.50814 346.664 3.86754C348.605 5.22693 350.143 6.96287 351.285 9.06897C352.421 11.1815 352.996 13.7407 352.996 16.7467H341.935C341.84 15.1958 341.508 13.9066 340.952 12.8919C340.391 11.8707 339.651 11.073 338.731 10.4922C337.812 9.91141 336.753 9.49658 335.566 9.25405C334.379 9.01153 333.077 8.89027 331.673 8.89027C330.754 8.89027 329.828 8.98601 328.909 9.18385C327.984 9.3817 327.148 9.71995 326.401 10.205C325.648 10.69 325.029 11.2963 324.544 12.0239C324.059 12.7515 323.816 13.6705 323.816 14.7874C323.816 15.8085 324.008 16.6318 324.397 17.2636C324.787 17.8955 325.552 18.4762 326.688 19.0123C327.824 19.5484 329.401 20.0781 331.418 20.6142C333.428 21.1503 336.064 21.8269 339.312 22.6501C340.282 22.848 341.629 23.199 343.352 23.7032C345.075 24.2138 346.786 25.0243 348.483 26.1412C350.181 27.258 351.649 28.7515 352.887 30.615C354.125 32.485 354.744 34.8719 354.744 37.7822C354.744 40.1627 354.285 42.3645 353.359 44.4068C352.434 46.4427 351.068 48.2042 349.249 49.6785C347.43 51.1591 345.171 52.3079 342.478 53.1376C339.785 53.9609 336.67 54.3757 333.128 54.3757C330.262 54.3757 327.486 54.0247 324.799 53.3227C322.106 52.6206 319.732 51.5165 317.664 50.0103C315.603 48.5105 313.962 46.5895 312.756 44.26C311.544 41.9306 310.963 39.1671 311.008 35.9633H322.068C322.068 37.712 322.38 39.1926 323.012 40.4052V40.3861Z" fill="white"/>
<path d="M357.431 10.8433V1.23828H400V10.8433H384.428V53.1952H373.004V10.8433H357.431Z" fill="white"/>
</g>
<defs>
<clipPath id="clip0_857_3">
<rect width="400" height="55" fill="white"/>
</clipPath>
</defs>
</svg>
